<?xml version="1.0" standalone="no"?>
<!DOCTYPE svg PUBLIC "-//W3C//DTD SVG 20010904//EN"
 "http://www.w3.org/TR/2001/REC-SVG-20010904/DTD/svg10.dtd">
<svg version="1.0" xmlns="http://www.w3.org/2000/svg"
 width="725.000000pt" height="543.000000pt" viewBox="0 0 725.000000 543.000000"
 preserveAspectRatio="xMidYMid meet">

<g transform="translate(0.000000,543.000000) scale(0.100000,-0.100000)"
fill="#000000" stroke="none">
<path d="M2655 4552 l-180 -3 -103 -155 c-57 -86 -101 -158 -99 -160 2 -3 150
-7 328 -10 434 -8 534 -24 712 -117 88 -45 187 -136 225 -205 l23 -42 -543 0
-544 0 -112 -165 -113 -165 676 0 675 0 0 -35 c0 -99 -59 -247 -131 -329 -170
-193 -498 -293 -933 -284 l-174 3 6 -159 5 -160 251 -296 c308 -364 968 -1146
1027 -1217 l44 -53 160 0 c88 0 204 3 258 7 92 6 97 7 97 29 0 15 -211 285
-634 811 -561 698 -632 789 -613 794 12 4 69 12 127 19 344 39 642 185 813
397 95 118 177 293 193 414 l7 49 166 1 c91 0 188 4 214 7 l48 7 104 160 104
160 -325 3 c-192 1 -324 6 -324 12 0 32 -70 193 -116 266 -30 47 -54 88 -54
90 0 2 136 4 303 4 l302 0 90 137 c50 75 98 149 107 165 l18 28 -953 -2 c-523
-2 -1033 -4 -1132 -6z"/>
</g>
</svg>
